<svg version="1.1" viewBox="0 0 36 36" xmlns="http://www.w3.org/2000/svg">
    <rect x="16.737" y="18.352" width="18.226" height="6.1333" rx="2.5737" ry="2.3008" style="fill-rule:evenodd;fill:#c3753b;stroke-linecap:round;stroke-linejoin:round;stroke:#000"/>
    <rect x="16.737" y="2.4361" width="18.226" height="6.1333" rx="2.5737" ry="2.3008" style="fill-rule:evenodd;fill:#4fc33b;stroke-linecap:round;stroke-linejoin:round;stroke:#000"/>
    <rect x="16.737" y="26.243" width="18.226" height="6.1333" rx="2.5737" ry="2.3008" style="fill-rule:evenodd;fill:#c33bba;stroke-linecap:round;stroke-linejoin:round;stroke:#000"/>
    <path d="m3.0547 0.5c-1.4113 0-2.5547 1.741-2.5547 3.8887v27.223c0 2.1476 1.1434 3.8887 2.5547 3.8887h17.891c1.4113 0 2.5547-1.741 2.5547-3.8887v-15.152h8.8438c1.4258 0 2.5742-1.0262 2.5742-2.3008v-1.5312c0-1.2746-1.1484-2.3008-2.5742-2.3008h-8.8438v-5.9375c0-2.1476-1.1434-3.8887-2.5547-3.8887h-17.891z" style="fill:#3b88c3;stroke-width:.99996;stroke:#000"/>
</svg>
